HIERARCHY
ROOT Hips
{
	OFFSET 0.000000 0.000000 0.000000
	CHANNELS 6 Xposition Yposition Zposition Yrotation Xrotation Zrotation
	JOINT Chest
	{
		OFFSET 0.000000 -0.009281 11.569106
		CHANNELS 3 Yrotation Xrotation Zrotation
		JOINT Chest2
		{
			OFFSET -0.000000 0.016865 9.269641
			CHANNELS 3 Yrotation Xrotation Zrotation
			JOINT Chest3
			{
				OFFSET -0.000000 0.000001 8.374491
				CHANNELS 3 Yrotation Xrotation Zrotation
				JOINT Chest4
				{
					OFFSET -0.000000 0.000001 8.374493
					CHANNELS 3 Yrotation Xrotation Zrotation
					JOINT Neck
					{
						OFFSET -0.000000 0.000002 12.152554
						CHANNELS 3 Yrotation Xrotation Zrotation
						JOINT Head
						{
							OFFSET -0.000000 0.040101 7.802319
							CHANNELS 3 Yrotation Xrotation Zrotation
							End Site
							{
								OFFSET -0.000000 0.020947 14.853096
							}
						}
					}
					JOINT RightCollar
					{
						OFFSET 2.894404 0.000001 6.791374
						CHANNELS 3 Yrotation Xrotation Zrotation
						JOINT RightShoulder
						{
							OFFSET 13.574684 0.000001 0.000000
							CHANNELS 3 Yrotation Xrotation Zrotation
							JOINT RightElbow
							{
								OFFSET 23.923903 0.000002 0.000000
								CHANNELS 3 Yrotation Xrotation Zrotation
								JOINT RightWrist
								{
									OFFSET 19.846718 0.012767 0.000000
									CHANNELS 3 Yrotation Xrotation Zrotation
									End Site
									{
										OFFSET 14.973145 0.000001 0.000000
									}
								}
							}
						}
					}
					JOINT LeftCollar
					{
						OFFSET -2.894404 0.000001 6.791374
						CHANNELS 3 Yrotation Xrotation Zrotation
						JOINT LeftShoulder
						{
							OFFSET -13.574684 -0.000001 0.000000
							CHANNELS 3 Yrotation Xrotation Zrotation
							JOINT LeftElbow
							{
								OFFSET -23.923903 -0.000002 0.000000
								CHANNELS 3 Yrotation Xrotation Zrotation
								JOINT LeftWrist
								{
									OFFSET -19.846718 0.012763 0.000000
									CHANNELS 3 Yrotation Xrotation Zrotation
									End Site
									{
										OFFSET -14.973145 -0.000001 0.000000
									}
								}
							}
						}
					}
				}
			}
		}
	}
	JOINT RightHip
	{
		OFFSET 9.469263 0.004643 0.045487
		CHANNELS 3 Yrotation Xrotation Zrotation
		JOINT RightKnee
		{
			OFFSET 0.000000 0.002661 -40.478676
			CHANNELS 3 Yrotation Xrotation Zrotation
			JOINT RightAnkle
			{
				OFFSET 0.000000 0.049106 -35.224068
				CHANNELS 3 Yrotation Xrotation Zrotation
				JOINT RightToe
				{
					OFFSET -0.000001 12.539529 -6.151390
					CHANNELS 3 Yrotation Xrotation Zrotation
					End Site
					{
						OFFSET -0.000001 5.044994 -1.291870
					}
				}
			}
		}
	}
	JOINT LeftHip
	{
		OFFSET -9.469263 0.004641 0.045487
		CHANNELS 3 Yrotation Xrotation Zrotation
		JOINT LeftKnee
		{
			OFFSET 0.000000 0.002661 -40.478676
			CHANNELS 3 Yrotation Xrotation Zrotation
			JOINT LeftAnkle
			{
				OFFSET 0.000000 0.049106 -35.224068
				CHANNELS 3 Yrotation Xrotation Zrotation
				JOINT LeftToe
				{
					OFFSET -0.000001 12.539529 -6.151390
					CHANNELS 3 Yrotation Xrotation Zrotation
					End Site
					{
						OFFSET -0.000001 5.044994 -1.291870
					}
				}
			}
		}
	}
}
MOTION
Frames: 8
Frame Time: 0.016667
12.529352 3.992301 82.817223 -9.098757 -2.127602 -105.422665 1.575545 -5.403903 2.889178 0.758129 -2.385730 1.193222 0.758129 -2.385730 1.193223 0.573178 -1.787829 0.897750 0.283598 -25.394070 6.857005 2.105984 -11.240693 12.329276 0.543904 -0.422471 4.231482 60.611741 -33.584078 54.250506 74.294194 -0.213902 45.531110 -39.614920 44.303954 -5.565508 -9.620298 -1.912281 -9.166511 -44.039656 -6.078312 -31.244277 2.475730 -34.133816 -5.051689 41.007482 -31.684793 -56.812014 -1.648350 -12.329523 -2.626296 2.287328 -6.558820 -6.075027 -0.496783 8.885169 2.375855 0.198899 0.215420 0.038129 -0.870421 -12.366715 -2.217630 0.988453 -3.033818 2.361281 -1.465372 5.975801 -3.853147 0.308468 -0.145537 -0.027215 
12.554681 4.032640 82.823647 -9.141157 -2.022934 -104.955337 1.593634 -5.328185 2.949384 0.766941 -2.352651 1.214489 0.766942 -2.352651 1.214487 0.579807 -1.762977 0.913694 0.354983 -25.417212 6.881752 2.236793 -11.292666 12.389406 0.464563 -0.585040 4.261256 60.814310 -33.240048 55.063848 74.836846 -0.508366 45.520998 -38.180269 43.989919 -6.688533 -9.512279 -2.170830 -9.162822 -43.964084 -5.510473 -31.492380 2.236578 -34.296647 -5.512015 39.850097 -32.108053 -55.590052 -1.697691 -12.400972 -2.772970 2.338887 -6.583307 -6.270168 -0.540699 8.922073 2.244022 0.207694 0.227431 0.039402 -0.909782 -12.361760 -2.393872 1.007326 -2.982204 2.215974 -1.541274 5.886450 -3.992334 0.314588 -0.142530 -0.026691 
12.579147 4.072654 82.830017 -9.169543 -1.916667 -104.496539 1.608768 -5.253560 3.003838 0.775258 -2.319624 1.233841 0.775258 -2.319624 1.233842 0.586052 -1.738165 0.928201 0.431939 -25.430837 6.890414 2.374704 -11.326504 12.422382 0.385315 -0.746822 4.299086 60.929993 -32.975088 55.955676 75.041690 -0.676386 45.634864 -36.514840 43.561191 -7.712995 -9.448723 -2.377518 -9.142697 -43.912055 -4.659672 -31.836007 1.748973 -34.825919 -5.883992 38.858445 -32.724570 -54.739448 -1.747715 -12.464128 -2.945560 2.387711 -6.596229 -6.465891 -0.579605 8.954795 2.162221 0.215462 0.236036 0.040827 -0.953445 -12.343483 -2.567440 1.036397 -2.933776 2.059750 -1.617033 5.797771 -4.103945 0.315686 -0.138887 -0.027726 
12.601216 4.113324 82.836517 -9.185603 -1.812888 -104.053151 1.606578 -5.204090 3.098548 0.776819 -2.297861 1.271312 0.776819 -2.297860 1.271313 0.587321 -1.721793 0.956278 0.547510 -25.411649 6.851278 2.573528 -11.300033 12.380129 0.331707 -0.771313 4.237062 60.970087 -32.898812 56.815334 75.093675 -0.651021 45.964796 -34.815974 43.168957 -8.774268 -9.377926 -2.378697 -9.197838 -43.812501 -4.121843 -32.102214 1.438015 -35.397261 -6.229046 38.219410 -33.505517 -54.388824 -1.798258 -12.518469 -3.122072 2.441958 -6.598978 -6.668940 -0.614989 8.979979 2.116586 0.218257 0.243943 0.041713 -0.993933 -12.311194 -2.742082 1.062319 -2.894073 1.911465 -1.687245 5.711657 -4.216797 0.313351 -0.134534 -0.028319 
12.620255 4.152378 82.844124 -9.193798 -1.716169 -103.633115 1.591005 -5.186503 3.227299 0.772937 -2.290700 1.323605 0.772937 -2.290699 1.323606 0.584592 -1.716363 0.995473 0.686672 -25.362919 6.777825 2.809251 -11.218696 12.283253 0.281171 -0.739242 4.102440 60.911347 -32.912776 57.725897 75.156335 -0.406382 46.373501 -33.155521 42.777885 -9.764611 -9.252279 -2.276621 -9.311087 -43.603890 -4.060070 -32.298073 1.327145 -35.553122 -6.648497 37.569456 -34.144324 -53.826122 -1.841046 -12.566518 -3.260037 2.495361 -6.592241 -6.888377 -0.645829 8.993777 2.054880 0.215718 0.254127 0.042911 -1.026201 -12.273620 -2.913046 1.079717 -2.856901 1.798982 -1.758740 5.625091 -4.337776 0.313368 -0.129784 -0.028099 
12.639744 4.188951 82.852127 -9.205242 -1.628026 -103.235031 1.611320 -5.132177 3.317617 0.784743 -2.266936 1.359204 0.784744 -2.266936 1.359204 0.593528 -1.698470 1.022184 0.781778 -25.351816 6.722688 2.967244 -11.203788 12.207350 0.154756 -0.828515 4.030819 60.901935 -32.882983 58.640459 75.107342 0.025194 46.635801 -31.105108 42.399291 -10.634932 -9.158094 -2.332496 -9.337279 -43.431240 -4.067947 -32.493590 1.251996 -35.411625 -7.061470 36.975475 -34.428272 -53.187267 -1.881737 -12.625541 -3.381610 2.548835 -6.569635 -7.109419 -0.667626 8.999082 2.013247 0.207109 0.263338 0.044063 -1.047727 -12.246311 -3.069961 1.092813 -2.819753 1.707063 -1.835826 5.540674 -4.521496 0.313546 -0.125334 -0.027898 
12.660364 4.219200 82.858955 -9.219447 -1.544074 -102.855887 1.653866 -5.022553 3.362697 0.805469 -2.218389 1.374735 0.805469 -2.218389 1.374731 0.609023 -1.661994 1.033847 0.843061 -25.387366 6.694826 3.067010 -11.273839 12.170362 -0.012464 -1.002547 4.008317 61.014619 -32.783091 59.515502 75.035850 0.614299 46.694015 -28.660703 42.074925 -11.509930 -9.107651 -2.600544 -9.259407 -43.341280 -3.809610 -32.760668 1.047458 -35.332832 -7.452754 36.189320 -34.709290 -52.321667 -1.916214 -12.696628 -3.516264 2.597716 -6.531486 -7.299970 -0.687868 9.003490 1.967958 0.194732 0.267895 0.044218 -1.066924 -12.228929 -3.200797 1.098144 -2.777280 1.586268 -1.905760 5.461306 -4.650131 0.313814 -0.124969 -0.025672 
12.681208 4.244784 82.864128 -9.226640 -1.461002 -102.484912 1.688862 -4.940485 3.392953 0.823303 -2.181667 1.384885 0.823303 -2.181666 1.384884 0.622352 -1.634398 1.041481 0.910702 -25.392186 6.666027 3.180627 -11.287592 12.134447 -0.203491 -1.160615 4.004960 61.031135 -32.678811 60.482780 74.937803 1.242789 46.803263 -25.842313 41.529469 -12.293633 -9.096901 -2.790836 -9.176167 -43.357908 -3.206014 -33.059082 0.719759 -35.689706 -7.808800 35.471495 -35.317170 -51.618205 -1.943192 -12.773174 -3.682716 2.634668 -6.471245 -7.468888 -0.701567 9.004569 1.944801 0.182503 0.266587 0.044018 -1.085173 -12.207146 -3.326176 1.108995 -2.737167 1.437004 -1.974526 5.389369 -4.713635 0.310427 -0.127213 -0.024550 
